<?xml version="1.0" encoding="utf-8"?>
<!-- Generator: Adobe Illustrator 19.2.0, SVG Export Plug-In . SVG Version: 6.00 Build 0)  -->
<svg version="1.1" id="Layer_1" xmlns="http://www.w3.org/2000/svg" xmlns:xlink="http://www.w3.org/1999/xlink" x="0px" y="0px"
	 viewBox="0 0 960 560" style="enable-background:new 0 0 960 560;" xml:space="preserve">
<style type="text/css">
	.st0{fill:#FFD800;}
	.st1{fill:#6D6E70;}
</style>
<g>
	<g>
		<path class="st0" d="M245.7,204.9H153v149h92.6V204.9z M134.3,186.1h130.3v186.6H134.3V186.1z"/>
	</g>
	<g>
		<path class="st1" d="M422.5,234.8c0,2.5-0.5,4.9-1.4,7.2c-0.9,2.3-2.2,4.3-3.9,6c-1.7,1.7-3.8,3.1-6.2,4.1c-2.4,1-5.2,1.5-8.3,1.5
			h-11.6v22.6h-11.7v-60.1h23.3c3.1,0,5.9,0.5,8.3,1.5c2.4,1,4.5,2.3,6.2,4c1.7,1.7,3,3.7,3.9,6
			C422.1,229.9,422.5,232.3,422.5,234.8z M410.8,234.8c0-2.5-0.8-4.5-2.3-6c-1.5-1.5-3.7-2.3-6.4-2.3h-11V243h11
			c2.7,0,4.8-0.7,6.4-2.2C410,239.3,410.8,237.3,410.8,234.8z"/>
		<path class="st1" d="M462.6,276.1l-11.7-24h-8.4v24h-11.7v-60.1h23.5c3,0,5.8,0.5,8.2,1.5c2.4,1,4.5,2.3,6.2,4
			c1.7,1.7,3,3.6,3.8,5.8c0.9,2.2,1.3,4.6,1.3,7.1c0,2.1-0.3,4.1-0.9,5.7c-0.6,1.7-1.4,3.2-2.4,4.5c-1,1.3-2.2,2.4-3.5,3.4
			c-1.3,0.9-2.7,1.6-4.2,2.2l13.4,25.9H462.6z M462,234.5c0-2.4-0.8-4.3-2.3-5.7c-1.5-1.5-3.6-2.2-6.2-2.2h-11.1v15.9h11.1
			c2.6,0,4.7-0.7,6.2-2.2C461.2,238.7,462,236.8,462,234.5z"/>
		<path class="st1" d="M526.6,246.1c0,2.6,0,5-0.1,7.3c-0.1,2.3-0.3,4.4-0.6,6.3c-0.4,2-1,3.8-1.8,5.5c-0.8,1.7-2,3.3-3.5,4.9
			c-2.1,2.1-4.5,3.8-7.1,4.9c-2.6,1.1-5.6,1.7-9.1,1.7c-3.4,0-6.5-0.6-9.1-1.7c-2.6-1.1-5-2.8-7.2-4.9c-1.5-1.5-2.7-3.1-3.5-4.9
			c-0.8-1.7-1.4-3.6-1.7-5.5c-0.3-2-0.5-4.1-0.6-6.3c-0.1-2.2-0.1-4.7-0.1-7.3c0-2.6,0-5,0.1-7.3c0.1-2.2,0.3-4.4,0.6-6.3
			c0.3-2,0.9-3.8,1.7-5.5c0.8-1.7,2-3.3,3.5-4.9c2.1-2.1,4.5-3.8,7.2-4.9c2.6-1.1,5.7-1.7,9.1-1.7c3.4,0,6.5,0.6,9.1,1.7
			c2.6,1.1,5,2.8,7.1,4.9c1.5,1.5,2.7,3.1,3.5,4.9c0.8,1.7,1.4,3.6,1.8,5.5c0.4,2,0.6,4.1,0.6,6.3
			C526.5,241.1,526.6,243.5,526.6,246.1z M514.8,246.1c0-2.9,0-5.2-0.1-7.1c-0.1-1.9-0.2-3.4-0.5-4.7c-0.2-1.2-0.5-2.2-0.9-3
			c-0.4-0.8-0.9-1.4-1.4-2.1c-0.8-1-1.9-1.7-3.2-2.3c-1.3-0.6-2.7-0.9-4.3-0.9c-1.6,0-3.1,0.3-4.4,0.9c-1.3,0.6-2.4,1.4-3.2,2.3
			c-0.6,0.6-1,1.3-1.4,2.1c-0.4,0.8-0.7,1.8-0.9,3c-0.2,1.2-0.4,2.8-0.5,4.7c-0.1,1.9-0.1,4.3-0.1,7.1c0,2.9,0,5.2,0.1,7.1
			c0.1,1.9,0.2,3.4,0.5,4.7c0.2,1.2,0.5,2.2,0.9,3c0.4,0.8,0.8,1.4,1.4,2.1c0.8,1,1.9,1.7,3.2,2.3c1.3,0.6,2.8,0.9,4.4,0.9
			c1.6,0,3.1-0.3,4.3-0.9c1.3-0.6,2.3-1.4,3.2-2.3c0.6-0.6,1-1.3,1.4-2.1c0.4-0.8,0.7-1.8,0.9-3c0.2-1.2,0.4-2.8,0.5-4.7
			C514.8,251.3,514.8,249,514.8,246.1z"/>
		<path class="st1" d="M580.5,252.6c0,2.2-0.2,4.3-0.5,6.4c-0.3,2.1-0.9,4.1-1.8,6c-0.8,1.9-2.1,3.7-3.8,5.4c-2,2-4.3,3.4-7,4.3
			c-2.7,0.9-5.7,1.4-8.8,1.4h-21.7v-60.1h21.7c3.2,0,6.1,0.5,8.8,1.4c2.7,0.9,5.1,2.4,7,4.3c1.7,1.7,3,3.5,3.8,5.3
			c0.8,1.9,1.4,3.8,1.8,5.8c0.3,2,0.5,4.1,0.5,6.3V252.6z M568.7,245.8c0-2.2,0-4.2-0.1-5.9c-0.1-1.7-0.2-3.1-0.3-4.3
			c-0.2-1.2-0.4-2.3-0.8-3.1c-0.3-0.8-0.8-1.6-1.4-2.3c-1-1.2-2.2-2.2-3.6-2.8c-1.4-0.6-3.1-0.9-5.1-0.9h-8.9v39.2h8.9
			c2,0,3.7-0.3,5.1-0.9c1.4-0.6,2.6-1.5,3.6-2.8c1.1-1.4,1.8-3.2,2.1-5.7C568.6,253.9,568.7,250.4,568.7,245.8z"/>
		<path class="st1" d="M634.1,255.6c0,3.2-0.6,6.1-1.7,8.7c-1.2,2.6-2.7,4.8-4.7,6.6c-2,1.8-4.3,3.2-7,4.3c-2.7,1-5.6,1.5-8.6,1.5
			s-6-0.5-8.6-1.5c-2.7-1-5-2.4-7-4.3c-2-1.8-3.6-4-4.7-6.6c-1.2-2.6-1.7-5.5-1.7-8.7v-39.5h11.7v39.1c0,3.5,0.9,6.2,2.8,8.1
			c1.9,1.9,4.4,2.9,7.6,2.9c3.2,0,5.8-1,7.6-2.9c1.9-1.9,2.8-4.7,2.8-8.1v-39.1h11.6V255.6z"/>
		<path class="st1" d="M687.6,257.7c-0.5,3-1.4,5.7-2.7,8.1c-1.3,2.4-2.9,4.3-4.8,5.9c-1.9,1.6-4.1,2.8-6.6,3.7
			c-2.5,0.8-5.1,1.3-8,1.3c-6.4,0-11.8-2.2-16.2-6.6c-2.6-2.6-4.2-5.6-4.9-9c-0.7-3.4-1-8.4-1-14.9s0.3-11.6,1-14.9
			c0.7-3.4,2.3-6.4,4.9-9c4.4-4.4,9.8-6.6,16.2-6.6c5.8,0,10.7,1.6,14.6,4.9c4,3.3,6.5,8,7.5,14.1h-11.9c-0.6-2.6-1.7-4.7-3.4-6.2
			c-1.6-1.5-3.9-2.3-6.8-2.3c-3.3,0-5.8,1-7.5,3.1c-0.6,0.7-1.1,1.4-1.5,2.2c-0.4,0.8-0.7,1.7-0.9,3c-0.2,1.2-0.3,2.8-0.4,4.6
			c-0.1,1.9-0.1,4.3-0.1,7.2c0,2.9,0,5.3,0.1,7.2c0.1,1.9,0.2,3.4,0.4,4.6c0.2,1.2,0.5,2.2,0.9,3c0.4,0.8,0.9,1.5,1.5,2.2
			c1.7,2.1,4.2,3.1,7.5,3.1c2.9,0,5.1-0.8,6.8-2.3c1.6-1.5,2.8-3.6,3.4-6.2H687.6z"/>
		<path class="st1" d="M694.4,276.1v-60.1H734v10.5h-27.8v14.1h23.7v10.5h-23.7v14.6H734v10.5H694.4z"/>
		<path class="st1" d="M774,276.1l-11.7-24h-8.4v24h-11.7v-60.1h23.5c3,0,5.8,0.5,8.2,1.5c2.4,1,4.5,2.3,6.2,4
			c1.7,1.7,3,3.6,3.8,5.8c0.9,2.2,1.3,4.6,1.3,7.1c0,2.1-0.3,4.1-0.9,5.7c-0.6,1.7-1.4,3.2-2.4,4.5c-1,1.3-2.2,2.4-3.5,3.4
			c-1.3,0.9-2.7,1.6-4.2,2.2l13.4,25.9H774z M773.4,234.5c0-2.4-0.8-4.3-2.3-5.7c-1.5-1.5-3.6-2.2-6.2-2.2h-11.1v15.9h11.1
			c2.6,0,4.7-0.7,6.2-2.2C772.6,238.7,773.4,236.8,773.4,234.5z"/>
		<path class="st1" d="M422.5,301.8c0,2.5-0.5,4.9-1.3,7.2c-0.9,2.3-2.2,4.3-3.9,6c-1.7,1.7-3.8,3.1-6.2,4c-2.4,1-5.2,1.5-8.3,1.5
			h-11.6v22.6h-11.7v-60.1h23.3c3.1,0,5.9,0.5,8.3,1.5c2.4,1,4.5,2.3,6.2,4.1c1.7,1.7,3,3.7,3.9,6
			C422.1,296.9,422.5,299.3,422.5,301.8z M410.8,301.8c0-2.5-0.8-4.5-2.3-6c-1.5-1.5-3.7-2.3-6.4-2.3h-11V310h11
			c2.7,0,4.8-0.7,6.4-2.2C410,306.2,410.8,304.3,410.8,301.8z"/>
		<path class="st1" d="M474.7,313.1c0,2.6,0,5-0.1,7.3c-0.1,2.2-0.3,4.4-0.6,6.3c-0.4,2-1,3.8-1.8,5.5c-0.8,1.7-2,3.3-3.5,4.9
			c-2.1,2.1-4.5,3.8-7.1,4.9c-2.6,1.1-5.6,1.7-9.1,1.7c-3.4,0-6.5-0.6-9.1-1.7c-2.6-1.1-5-2.8-7.2-4.9c-1.5-1.5-2.7-3.1-3.5-4.9
			c-0.8-1.7-1.4-3.6-1.7-5.5s-0.5-4.1-0.6-6.3c-0.1-2.2-0.1-4.7-0.1-7.3c0-2.6,0-5,0.1-7.3c0.1-2.2,0.3-4.4,0.6-6.3
			c0.3-2,0.9-3.8,1.7-5.5c0.8-1.7,2-3.3,3.5-4.9c2.1-2.1,4.5-3.8,7.2-4.9c2.6-1.1,5.7-1.7,9.1-1.7c3.4,0,6.5,0.6,9.1,1.7
			c2.6,1.1,5,2.8,7.1,4.9c1.5,1.5,2.7,3.1,3.5,4.9c0.8,1.7,1.4,3.6,1.8,5.5c0.4,2,0.6,4.1,0.6,6.3
			C474.7,308.1,474.7,310.5,474.7,313.1z M463,313.1c0-2.9,0-5.2-0.1-7.1c-0.1-1.9-0.2-3.4-0.5-4.7c-0.2-1.2-0.5-2.2-0.9-3
			c-0.4-0.8-0.9-1.4-1.4-2.1c-0.8-1-1.9-1.7-3.2-2.3c-1.3-0.6-2.7-0.9-4.3-0.9c-1.6,0-3.1,0.3-4.4,0.9c-1.3,0.6-2.4,1.4-3.2,2.3
			c-0.6,0.6-1,1.3-1.4,2.1c-0.4,0.8-0.7,1.8-0.9,3c-0.2,1.2-0.4,2.8-0.5,4.7s-0.1,4.3-0.1,7.1s0,5.2,0.1,7.1
			c0.1,1.9,0.2,3.4,0.5,4.7c0.2,1.2,0.5,2.2,0.9,3c0.4,0.8,0.8,1.4,1.4,2.1c0.8,1,1.9,1.7,3.2,2.3c1.3,0.6,2.8,0.9,4.4,0.9
			c1.6,0,3.1-0.3,4.3-0.9s2.3-1.4,3.2-2.3c0.6-0.6,1-1.3,1.4-2.1c0.4-0.8,0.7-1.8,0.9-3c0.2-1.2,0.4-2.8,0.5-4.7
			C463,318.3,463,316,463,313.1z"/>
		<path class="st1" d="M516.9,343.1l-11.7-24h-8.4v24H485v-60.1h23.5c3,0,5.8,0.5,8.2,1.5c2.4,1,4.5,2.3,6.2,4
			c1.7,1.7,3,3.6,3.8,5.8c0.9,2.2,1.3,4.6,1.3,7.1c0,2.1-0.3,4-0.9,5.7c-0.6,1.7-1.4,3.2-2.4,4.5c-1,1.3-2.2,2.4-3.5,3.4
			c-1.3,0.9-2.7,1.6-4.2,2.2l13.4,25.9H516.9z M516.3,301.5c0-2.4-0.8-4.3-2.3-5.7c-1.5-1.5-3.6-2.2-6.2-2.2h-11.1v15.9h11.1
			c2.6,0,4.7-0.7,6.2-2.2C515.6,305.7,516.3,303.8,516.3,301.5z"/>
		<path class="st1" d="M561.5,293.5v49.6h-11.7v-49.6H534v-10.5h43.1v10.5H561.5z"/>
		<path class="st1" d="M614.1,343.1l-3.5-10.6h-21.3l-3.6,10.6h-12.2l21.9-60.1h9.2l21.9,60.1H614.1z M600.1,300.8l-7.6,21.9h14.9
			L600.1,300.8z"/>
		<path class="st1" d="M633.8,343.1v-60.1h11.7v49.6h27.3v10.5H633.8z"/>
	</g>
	<g>
		<line class="st1" x1="323.5" y1="196.3" x2="323.5" y2="366.3"/>
		<rect x="318.7" y="196.1" class="st1" width="9.9" height="170.7"/>
	</g>
</g>
</svg>
