<?xml version="1.0" encoding="utf-8"?>
<!-- Generator: Adobe Illustrator 19.2.0, SVG Export Plug-In . SVG Version: 6.00 Build 0)  -->
<svg version="1.1" id="Layer_1" xmlns="http://www.w3.org/2000/svg" xmlns:xlink="http://www.w3.org/1999/xlink" x="0px" y="0px"
	 viewBox="0 0 550 400" style="enable-background:new 0 0 550 400;" xml:space="preserve">
<style type="text/css">
	.st0{fill:#8F8F8F;}
</style>
<path class="st0" d="M374.6,210.7c-1.5,4.7-7.7,3.2-7.7,3.2s-4-1.3-2.9-3.7c1.1-2.4,5-2.5,5-2.5c3.8-0.4,4.6,0.6,4.6,0.6l-0.8-15
	l16.3-5.5v19.7c-0.6,1.7-4.2,1.7-4.2,1.7c-3.5,0.3-4.7-1.5-4.7-1.5c-1.1-2.3,3.1-2.8,3.1-2.8c3.1-0.4,4.8,1,4.8,1l-0.8-9.6l-12,3.7
	c0,0,0,6.3-0.2,7.9S374.6,210.7,374.6,210.7z"/>
</svg>
