<?xml version="1.0" encoding="utf-8"?>
<!-- Generator: Adobe Illustrator 19.2.0, SVG Export Plug-In . SVG Version: 6.00 Build 0)  -->
<svg version="1.1" id="Layer_1" xmlns="http://www.w3.org/2000/svg" xmlns:xlink="http://www.w3.org/1999/xlink" x="0px" y="0px"
	 viewBox="0 0 550 400" style="enable-background:new 0 0 550 400;" xml:space="preserve">
<style type="text/css">
	.st0{fill:#8F8F8F;}
</style>
<g transform="matrix( 1, 0, 0, 1, 0,0) ">
	<g>
		<path class="st0" d="M426.9,171.5c-1.8,0-3.4-0.7-4.8-2c-1.3-1.3-1.9-2.9-1.9-4.7c0-1.3,0.3-2.5,0.9-3.5c0-0.1,0.1-0.2,0.2-0.3
			l0.3-0.4c0.3-0.4,1-0.5,1.4-0.2c0.4,0.3,0.5,1,0.2,1.4l-0.3,0.4c0,0,0,0,0,0c-0.5,0.8-0.7,1.6-0.7,2.5c0,1.3,0.4,2.4,1.4,3.3
			c0.9,0.9,2,1.4,3.3,1.4c1.3,0,2.4-0.5,3.3-1.4c1-0.9,1.4-2,1.4-3.3c0-1-0.2-1.8-0.7-2.5l-0.3-0.4c-0.3-0.4-0.2-1.1,0.2-1.4
			c0.4-0.3,1.1-0.2,1.4,0.2l0.3,0.4c0.7,1.1,1.1,2.3,1.1,3.7c0,1.8-0.7,3.4-2,4.7C430.3,170.8,428.7,171.5,426.9,171.5z
			 M422.8,162.4C422.8,162.4,422.8,162.4,422.8,162.4C422.8,162.4,422.8,162.4,422.8,162.4z M422.9,162.3
			C422.9,162.3,422.9,162.3,422.9,162.3C422.9,162.3,422.9,162.3,422.9,162.3z M426.8,166.6c-0.6,0-1-0.4-1-1v-7.1c0-0.6,0.4-1,1-1
			s1,0.4,1,1v7.1C427.8,166.2,427.4,166.6,426.8,166.6z"/>
	</g>
</g>
</svg>
