<?xml version="1.0" encoding="utf-8"?>
<!-- Generator: Adobe Illustrator 19.2.0, SVG Export Plug-In . SVG Version: 6.00 Build 0)  -->
<svg version="1.1" id="Layer_1" xmlns="http://www.w3.org/2000/svg" xmlns:xlink="http://www.w3.org/1999/xlink" x="0px" y="0px"
	 viewBox="0 0 550 400" style="enable-background:new 0 0 550 400;" xml:space="preserve">
<style type="text/css">
	.st0{fill:#8F8F8F;}
</style>
<g>
	<path class="st0" d="M434,170.4h-6.7c0.6-0.3,1.2-0.8,1.8-1.3c1.3-1.3,1.9-2.8,1.9-4.6c0-1.8-0.6-3.3-1.9-4.6
		c-1.3-1.3-2.8-1.9-4.6-1.9c-1.8,0-3.4,0.6-4.7,1.9c-0.9,0.9-1.5,1.9-1.7,3.1c-0.1,0.5-0.2,1-0.2,1.5c0,1.7,0.5,3.1,1.6,4.3
		c0.1,0.1,0.2,0.2,0.2,0.2c1.1,1.2,2.5,1.8,4.1,2l10,0c0.2,0,0.7,0,1.5,0c0.3,0,0.5,0,0.5-0.1C435.9,170.7,435.2,170.5,434,170.4z
		 M423.1,159.7c0.4-0.4,0.8-0.6,1.2-0.6c0.5,0,1,0.2,1.3,0.6c0.4,0.4,0.5,0.8,0.5,1.3c0,0.1,0,0.1,0,0.2c0,0.4-0.2,0.7-0.5,1
		l-1.3,1.5l-1.3-1.4c-0.3-0.3-0.5-0.7-0.6-1.1c0-0.1,0-0.1,0-0.2C422.5,160.5,422.7,160.1,423.1,159.7z M421,166.5
		c-0.1,0-0.1,0-0.2,0c-0.5,0-0.9-0.2-1.3-0.6c-0.4-0.4-0.5-0.8-0.5-1.2c0-0.5,0.2-1,0.5-1.4c0.4-0.4,0.8-0.5,1.3-0.5
		c0.1,0,0.1,0,0.2,0c0.4,0,0.7,0.2,1,0.5l1.5,1.3L422,166C421.7,166.3,421.4,166.5,421,166.5z M426.3,168.3c0,0.5-0.2,0.9-0.6,1.3
		c-0.4,0.4-0.8,0.5-1.2,0.5c-0.5,0-1-0.2-1.3-0.5c-0.4-0.4-0.6-0.8-0.6-1.3c0-0.1,0-0.1,0-0.2c0-0.4,0.2-0.7,0.5-1l1.4-1.5l1.3,1.4
		c0.3,0.3,0.5,0.7,0.6,1.1C426.3,168.2,426.3,168.2,426.3,168.3z M425.4,164.6l1.4-1.3c0.3-0.3,0.7-0.5,1.1-0.5c0.1,0,0.1,0,0.2,0
		c0.5,0,0.9,0.2,1.3,0.6c0.4,0.4,0.5,0.8,0.5,1.2c0,0.5-0.2,1-0.5,1.4c-0.4,0.4-0.8,0.5-1.4,0.5c-0.1,0-0.1,0-0.2,0
		c-0.4,0-0.7-0.2-1-0.5L425.4,164.6z"/>
</g>
</svg>
