<?xml version="1.0" encoding="utf-8"?>
<!-- Generator: Adobe Illustrator 19.2.0, SVG Export Plug-In . SVG Version: 6.00 Build 0)  -->
<svg version="1.1" id="Layer_1" xmlns="http://www.w3.org/2000/svg" xmlns:xlink="http://www.w3.org/1999/xlink" x="0px" y="0px"
	 viewBox="0 0 960 560" style="enable-background:new 0 0 960 560;" xml:space="preserve">
<style type="text/css">
	.st0{fill:#03050A;}
</style>
<path class="st0" d="M480.8,280l10.1-10.1c0.4-0.4,0.4-1,0-1.4s-1-0.4-1.4,0l-10.1,10.1l-10.1-10.1c-0.4-0.4-1-0.4-1.4,0
	s-0.4,1,0,1.4L478,280L467.9,290c-0.4,0.4-0.4,1,0,1.4c0.2,0.2,0.5,0.3,0.7,0.3s0.5-0.1,0.7-0.3l10.1-10.1l10.1,10.1
	c0.2,0.2,0.5,0.3,0.7,0.3s0.5-0.1,0.7-0.3c0.4-0.4,0.4-1,0-1.4L480.8,280z"/>
</svg>
